<svg version="1.1" id="Layer_1" xmlns="http://www.w3.org/2000/svg" xmlns:xlink="http://www.w3.org/1999/xlink" x="0px" y="0px"
	 width="100%" viewBox="0 0 192 192" enable-background="new 0 0 192 192" xml:space="preserve">
<path fill="#000000" opacity="1.000000" stroke="none" 
	d="
M119.315979,77.281242 
	C116.761787,82.885216 112.319740,85.964912 106.983589,87.016426 
	C101.704948,88.056595 100.465973,91.334038 99.842667,96.061989 
	C107.446190,98.189705 111.071854,106.107765 118.813286,108.192757 
	C121.619041,108.948433 122.284332,112.382446 122.656715,115.334221 
	C119.750626,117.877350 116.028442,117.734596 112.746758,118.161736 
	C99.862129,119.838768 86.948677,119.625717 74.124413,117.285126 
	C69.480133,116.437485 68.524521,114.236755 71.057457,110.342087 
	C71.594681,109.516037 72.160202,108.424057 72.969368,108.104424 
	C79.144981,105.664978 84.145287,101.383904 89.662346,97.907387 
	C92.368919,96.201889 95.536636,95.760658 94.473473,91.324730 
	C93.028564,85.295998 90.481949,82.389435 85.575974,82.431374 
	C76.099113,82.512360 70.208351,77.220161 65.766167,69.594498 
	C64.105652,66.743988 64.669456,65.223289 68.040466,64.234970 
	C78.112495,61.282051 88.987793,66.992325 91.873589,76.926155 
	C92.262688,78.265549 92.126602,79.981041 94.120377,81.012169 
	C95.698097,74.209793 93.839714,68.154236 91.362778,62.209934 
	C90.704185,60.629417 89.029190,60.625832 87.571114,60.223465 
	C75.649391,56.933563 69.456261,49.386166 68.163353,36.728024 
	C81.107910,32.085522 95.551231,43.598267 93.815201,57.084198 
	C93.324074,60.899483 95.767570,63.782223 97.490189,67.457939 
	C99.297859,64.812630 98.807426,62.380596 98.578339,60.232689 
	C97.622414,51.270145 101.763535,45.249847 109.171844,41.008957 
	C113.547005,38.504395 118.236145,36.940475 123.322502,36.646095 
	C126.346008,36.471107 127.699203,37.706062 127.211975,40.767033 
	C125.154350,53.693909 120.578941,64.596024 105.850060,67.331490 
	C102.892143,67.880836 101.182564,69.838394 100.367813,72.538864 
	C98.939484,77.272972 97.751991,82.065918 98.678345,87.540527 
	C101.101677,85.643349 101.137032,82.972122 102.115944,80.821373 
	C104.684799,75.177399 112.629410,72.145020 118.191246,74.662766 
	C119.320496,75.173965 119.748749,75.774933 119.315979,77.281242 
z"/>
<path fill="#000000" opacity="1.000000" stroke="none" 
	d="
M107.688515,130.238480 
	C107.711990,127.745888 108.610817,126.734886 110.743286,126.793350 
	C113.089432,126.857666 113.124626,128.456665 113.456070,130.169495 
	C113.967430,132.812119 112.768250,136.520035 117.577995,136.707870 
	C121.215118,136.849884 123.960007,136.560516 123.233032,131.831940 
	C123.112129,131.045502 123.463898,130.195374 123.530411,129.369308 
	C123.676537,127.554527 124.603775,126.734833 126.447090,126.774109 
	C128.273666,126.813019 129.260864,127.630524 129.267639,129.463791 
	C129.292816,136.270523 129.289505,143.077393 129.298920,149.884201 
	C129.301376,151.662933 128.510513,152.756912 126.648834,152.756714 
	C124.947113,152.756546 123.793846,152.036758 123.679428,150.145844 
	C123.609337,148.987473 123.388901,147.835556 123.361206,146.677734 
	C123.258385,142.379608 120.427841,142.304367 117.166534,142.336502 
	C113.524979,142.372360 113.204163,144.560974 113.330627,147.303406 
	C113.361176,147.966019 113.318520,148.631760 113.319458,149.296036 
	C113.321999,151.099518 113.021797,152.691635 110.718880,152.713562 
	C108.316391,152.736435 107.625404,151.268250 107.635658,149.146790 
	C107.665344,143.001953 107.661850,136.856979 107.688515,130.238480 
z"/>
<path fill="#000000" opacity="1.000000" stroke="none" 
	d="
M25.020847,151.394653 
	C24.794447,144.170563 24.795834,137.358765 24.664108,130.549561 
	C24.611704,127.840729 25.639212,126.525154 28.438507,126.666786 
	C30.261644,126.759026 32.093884,126.658287 33.921875,126.669922 
	C40.488731,126.711723 42.838066,128.309479 43.303459,133.030869 
	C43.998432,140.081360 42.396519,142.655151 35.743099,144.051453 
	C32.959976,144.635513 31.127916,145.235733 31.285776,148.622635 
	C31.521929,153.689362 28.687460,153.529129 25.020847,151.394653 
M34.310001,131.462570 
	C29.053762,132.889557 31.935282,136.364914 31.928890,139.477890 
	C34.619091,139.230606 36.764263,138.762909 37.455555,136.318878 
	C38.055828,134.196609 37.423492,132.339539 34.310001,131.462570 
z"/>
<path fill="#000000" opacity="1.000000" stroke="none" 
	d="
M151.652771,132.125793 
	C151.691727,130.486191 151.694458,129.325424 151.776566,128.170273 
	C151.868332,126.879341 152.419144,125.991341 153.885818,125.938103 
	C155.638901,125.874458 156.187531,126.937431 156.277756,128.423141 
	C156.376801,130.053879 156.428070,131.687515 156.500748,133.333008 
	C165.865463,132.284241 169.287369,134.885208 169.331207,142.889618 
	C169.376526,151.164215 160.766174,156.155136 153.406937,152.244507 
	C151.427292,151.192566 151.713135,149.573990 151.689987,148.010712 
	C151.613968,142.877106 151.655334,137.741760 151.652771,132.125793 
M156.350784,144.425110 
	C156.384888,146.430191 156.125931,148.612152 159.171631,148.612976 
	C161.573639,148.613617 162.901917,147.154175 163.392868,145.103836 
	C163.936584,142.833160 164.004517,140.454971 162.247482,138.517502 
	C161.395584,137.578125 160.352036,137.236649 159.111145,137.797348 
	C156.540298,138.959015 156.163239,141.149216 156.350784,144.425110 
z"/>
<path fill="#000000" opacity="1.000000" stroke="none" 
	d="
M71.341370,142.722443 
	C71.328629,144.468201 71.230675,145.802734 71.345726,147.118637 
	C71.694214,151.104736 70.939850,153.752350 65.941833,152.495468 
	C64.790726,152.205978 63.398140,152.931259 62.107647,153.131256 
	C58.248615,153.729294 55.039345,151.374176 54.687557,147.714752 
	C54.251995,143.183868 56.209465,140.937561 60.784943,140.627426 
	C62.034016,140.542755 63.424812,141.121918 64.511726,139.997757 
	C62.702053,135.374084 58.951927,139.326462 56.140125,138.045792 
	C55.057549,132.807449 59.408428,133.065018 62.193001,132.812988 
	C68.275047,132.262466 71.269348,135.642685 71.341370,142.722443 
M62.595905,144.430389 
	C60.499012,144.904373 59.622952,146.172974 61.001755,147.952972 
	C61.928406,149.149277 63.569263,148.800095 64.545135,147.784897 
	C66.273056,145.987366 65.465248,144.873154 62.595905,144.430389 
z"/>
<path fill="#000000" opacity="1.000000" stroke="none" 
	d="
M85.651001,144.315369 
	C85.643761,143.210220 85.649467,142.543304 85.628281,141.877258 
	C85.565514,139.903915 85.038063,137.852554 82.773117,137.948944 
	C80.521629,138.044754 79.443047,139.941086 79.384346,142.196396 
	C79.319313,144.694687 79.322571,147.194794 79.298836,149.694122 
	C79.282829,151.380295 78.763557,152.666534 76.799118,152.720230 
	C74.779625,152.775467 73.678070,151.837082 73.683731,149.742844 
	C73.695442,145.410843 73.661110,141.078156 73.736916,136.747375 
	C73.750450,135.974060 74.084129,134.609009 74.472015,134.531784 
	C78.471123,133.735504 82.484940,132.398300 86.597855,133.178024 
	C90.275871,133.875305 90.826363,137.222366 91.182777,140.141174 
	C91.563766,143.261292 91.295570,146.461914 91.291611,149.627365 
	C91.289528,151.293961 90.779800,152.635849 88.831680,152.715637 
	C86.825851,152.797745 85.703224,151.848663 85.698395,149.752472 
	C85.694550,148.086288 85.668076,146.420151 85.651001,144.315369 
z"/>
<path fill="#000000" opacity="1.000000" stroke="none" 
	d="
M148.349121,147.721207 
	C148.468063,151.211273 148.154251,153.752487 143.987381,152.333084 
	C143.403214,152.134094 142.679276,152.222763 142.041992,152.320892 
	C133.661758,153.611099 131.719360,151.962601 131.677399,143.461945 
	C131.662750,140.492981 131.675079,137.523865 131.675079,134.414780 
	C135.809341,132.929733 137.580063,134.093674 137.350830,138.268188 
	C137.241638,140.256775 137.305420,142.256760 137.339691,144.250748 
	C137.371185,146.084198 137.235641,148.345566 139.772263,148.362625 
	C142.027100,148.377808 143.334564,146.600876 143.536301,144.424622 
	C143.765732,141.949493 143.645035,139.443329 143.719772,136.951950 
	C143.766998,135.377029 143.971680,133.852463 146.133987,133.994156 
	C147.887589,134.109070 148.255585,135.388519 148.280746,136.792084 
	C148.343292,140.281555 148.331833,143.772369 148.349121,147.721207 
z"/>
<path fill="#000000" opacity="1.000000" stroke="none" 
	d="
M96.587151,151.333420 
	C95.016335,148.806030 94.498451,146.421936 94.637840,143.863495 
	C94.700859,142.706833 95.086456,140.970886 94.498245,140.470535 
	C90.009979,136.652786 92.379288,133.874252 95.586426,131.055237 
	C95.908607,130.772034 95.839478,130.085571 96.101227,129.683411 
	C96.748520,128.688858 98.460938,128.517365 98.653587,128.991226 
	C99.943657,132.164551 103.334206,133.328201 104.994293,136.008438 
	C105.495903,136.818283 104.557365,137.652252 103.575378,138.243454 
	C98.981720,141.009048 98.917976,145.669525 103.488441,147.861023 
	C104.807137,148.493332 105.239761,149.183685 105.151733,150.454376 
	C105.057358,151.816513 104.111008,152.480698 102.981506,152.898285 
	C100.703606,153.740463 98.787743,152.665451 96.587151,151.333420 
z"/>
<path fill="#000000" opacity="1.000000" stroke="none" 
	d="
M45.640625,137.011368 
	C45.662476,134.026138 45.690285,131.534698 45.696102,129.043243 
	C45.700455,127.178375 46.165096,125.790733 48.445976,125.795944 
	C50.653233,125.800987 51.299904,127.060188 51.304073,128.980988 
	C51.314529,133.798050 51.296772,138.615692 51.373062,143.431793 
	C51.396397,144.904556 51.362717,146.518509 51.938377,147.807281 
	C52.684288,149.477219 54.094601,150.982208 52.471191,152.714218 
	C51.599136,153.644608 50.324173,153.181458 49.193123,152.797592 
	C47.094532,152.085342 45.774982,150.750320 45.728722,148.466660 
	C45.654724,144.813705 45.663410,141.159073 45.640625,137.011368 
z"/>
</svg>